<?xml version="1.0" encoding="UTF-8" standalone="no"?>
<svg
   xmlns:dc="http://purl.org/dc/elements/1.1/"
   xmlns:cc="http://creativecommons.org/ns#"
   xmlns:rdf="http://www.w3.org/1999/02/22-rdf-syntax-ns#"
   xmlns:svg="http://www.w3.org/2000/svg"
   xmlns="http://www.w3.org/2000/svg"
   xmlns:sodipodi="http://sodipodi.sourceforge.net/DTD/sodipodi-0.dtd"
   xmlns:inkscape="http://www.inkscape.org/namespaces/inkscape"
   version="1.1"
   id="svg2"
   viewBox="0 0 128 128"
   height="128"
   width="128"
   inkscape:version="0.91 r13725"
   sodipodi:docname="favicon.svg">
  <sodipodi:namedview
     pagecolor="#ffffff"
     bordercolor="#666666"
     borderopacity="1"
     objecttolerance="10"
     gridtolerance="10"
     guidetolerance="10"
     inkscape:pageopacity="0"
     inkscape:pageshadow="2"
     inkscape:window-width="1535"
     inkscape:window-height="876"
     id="namedview4184"
     showgrid="false"
     inkscape:zoom="5.4296875"
     inkscape:cx="81.772662"
     inkscape:cy="64"
     inkscape:window-x="65"
     inkscape:window-y="24"
     inkscape:window-maximized="1"
     inkscape:current-layer="svg2" />
  <defs
     id="defs4" />
  <metadata
     id="metadata7">
    <rdf:RDF>
      <cc:Work
         rdf:about="">
        <dc:format>image/svg+xml</dc:format>
        <dc:type
           rdf:resource="http://purl.org/dc/dcmitype/StillImage" />
        <dc:title></dc:title>
      </cc:Work>
    </rdf:RDF>
  </metadata>
  <g
     transform="translate(0,-924.36216)"
     id="layer1" />
  <rect
     style="opacity:1;fill:#6897ff;fill-opacity:1;stroke:none;stroke-width:1.77600002;stroke-linecap:round;stroke-linejoin:round;stroke-miterlimit:4;stroke-dasharray:none;stroke-opacity:1"
     id="rect4190"
     width="113.8187"
     height="113.8187"
     x="7.0906487"
     y="7.0906487"
     rx="10"
     ry="10" />
  <path
     style="opacity:1;fill:#ff72f1;fill-opacity:1;stroke:#000000;stroke-width:1.776;stroke-linecap:round;stroke-linejoin:round;stroke-miterlimit:4;stroke-dasharray:none;stroke-opacity:1"
     d="m 75.562043,14.307603 c -1.007665,-0.0044 -2.187166,0.167865 -3.640171,0.572299 -7.749359,2.156981 -5.443807,5.935071 -10.445329,12.235065 -5.001522,6.299995 -9.205454,4.912949 -9.548727,12.949573 -0.01491,0.34912 -0.0092,0.66008 -0.0069,0.976377 -7.087725,-2.813863 -7.239902,-7.01569 -14.831223,-4.902698 -7.74936,2.156981 -5.443807,5.936806 -10.445329,12.236799 -5.001523,6.299995 -9.205455,4.911215 -9.548728,12.947839 -0.343272,8.036623 3.963237,7.012571 8.409332,13.716106 4.446095,6.703536 1.825957,10.27145 9.363163,13.081375 7.537206,2.809925 7.893488,-1.602851 15.642848,-3.759833 3.807877,-1.059897 6.364314,-0.735053 8.577552,-0.874057 -0.149399,0.727308 -0.249772,1.5568 -0.291353,2.530257 -0.343272,8.036622 3.961503,7.010837 8.407597,13.714367 4.446096,6.703548 1.827692,10.273188 9.364898,13.083118 7.537205,2.80992 7.893489,-1.60286 15.642848,-3.75984 7.749356,-2.15698 10.332629,1.43719 15.334149,-4.86281 5.00152,-6.299995 0.91579,-8.001635 1.25906,-16.038251 0.34328,-8.036624 4.56056,-9.385012 0.11446,-16.088548 -4.4461,-6.703534 -7.3287,-3.343159 -14.865904,-6.153085 -2.798022,-1.043121 -4.550102,-2.30742 -6.049032,-3.376565 5.766324,-0.849756 8.293259,1.220381 12.673836,-4.297448 5.00152,-6.299993 0.91578,-8.001631 1.25905,-16.038254 0.34327,-8.036623 4.55882,-9.383277 0.11273,-16.086813 -4.446112,-6.703535 -7.326979,-3.34316 -14.864189,-6.153085 -6.123979,-2.283063 -7.258064,-5.632807 -11.624612,-5.651888 z m -8.43361,51.338715 c 0.698888,0.423282 1.532627,0.825881 2.573612,1.213968 0.697685,0.260102 1.31628,0.440581 1.902461,0.584439 -0.697951,1.607112 -1.539816,3.456904 -3.260371,5.624141 -0.0048,0.0061 -0.009,0.01127 -0.01388,0.01734 -0.141079,-2.069798 -1.012898,-4.172131 -1.201828,-7.439891 z"
     id="path4196"
     inkscape:connector-curvature="0" />
</svg>
